<svg xmlns="http://www.w3.org/2000/svg" width="700" height="700" viewBox="0 0 260 260">
  <path fill="#000" d="M17,16v160h195V16H17z M197.1,160H31.9V32h165.3V160L197.1,160z"/>
  <path fill="#000" d="M42 143.5L75.4 106.8 87.9 112.5 127.5 68.5 143 87.9 150 83.5 188 143.5z"/>
  <circle fill="#000" cx="75" cy="65" r="16"/>
  <path opacity=".2" fill="#fff" d="M96 130H228V228H96z"/>
  <path d="M101.5 218L129.7 188.6 140.2 193.2 173.5 158 186.6 173.6 192.5 170 224.5 218z"/>
  <circle cx="125" cy="154" r="12.5"/>
  <path d="M80,114v130h164V114H80z M228,228H96v-98h132V228L228,228z"/>
</svg>
